<svg xmlns="http://www.w3.org/2000/svg" viewBox="0 0 48 48">
  <path d="M24 4C13 4 4 13 4 24s9 20 20 20 20-9 20-20S35 4 24 4z" fill="#12B7F5"/>
  <path d="M34.5 23.5c0-5.8-4.7-10.5-10.5-10.5S13.5 17.7 13.5 23.5c0 1.4.3 2.7.8 3.9-.3.8-.6 1.8-.6 2.6 0 .5.1.9.2 1.2.1-.1.3-.3.5-.5.5-.6 1.1-1.4 1.6-2.1.9.5 1.9.9 3 1.1-.4.3-.6.7-.6 1.1 0 .8 1.3 1.4 3 1.6-.2.2-.3.4-.3.7 0 .6 1.1 1 2.5 1s2.5-.4 2.5-1c0-.2-.1-.5-.3-.7 1.6-.2 3-. 8 3-1.6 0-.8-1.3-1.4-.2-.4-.6-.7-.6-1.1 1.1-.2 2.1-.6 3-1.1.5.7 1.1 1.5 1.6 2.1.2.2.4.4.5.5.1-.3.2-.7.2-1.2 0-.8-.3-1.8-.6-2.6.5-1.2.8-2.5.8-3.9z" fill="#fff"/>
  <circle cx="19.5" cy="21.5" r="1.5" fill="#12B7F5"/>
  <circle cx="28.5" cy="21.5" r="1.5" fill="#12B7F5"/>
</svg>