<svg xmlns="http://www.w3.org/2000/svg" viewBox="0 0 48 48">
  <path d="M35.76 16.92c.48 0 .96.04 1.44.08C35.48 10.4 28.48 5.6 20.4 5.6 11.12 5.6 3.6 11.88 3.6 19.8c0 4.56 2.52 8.32 6.72 11.24l-1.68 5.04 5.88-2.96c2.12.4 3.8.84 5.92.84.52 0 1.04-.04 1.56-.08-.32-1.12-.52-2.28-.52-3.48 0-7.24 6.2-13.12 13.88-13.48.16 0 .28 0 .4 0zm-8.8-4.44c1.28 0 2.12.84 2.12 2.12s-.84 2.12-2.12 2.12-2.52-.84-2.52-2.12.84-2.12 2.52-2.12zm-11.76 4.24c-1.28 0-2.56-.84-2.56-2.12s1.28-2.12 2.56-2.12 2.12.84 2.12 2.12-.84 2.12-2.12 2.12z" fill="#07C160"/>
  <path d="M44.4 30.36c0-6.64-6.64-12.04-14.08-12.04-7.88 0-14.08 5.4-14.08 12.04s6.2 12.04 14.08 12.04c1.64 0 3.32-.4 4.96-.84l4.52 2.52-1.24-4.2c3.32-2.52 5.84-5.88 5.84-9.52zm-18.64-2.12c-.84 0-1.68-.84-1.68-1.68s.84-1.68 1.68-1.68 2.12.84 2.12 1.68-.84 1.68-2.12 1.68zm9.2 0c-.84 0-1.68-.84-1.68-1.68s.84-1.68 1.68-1.68 2.12.84 2.12 1.68c0 .84-.84 1.68-2.12 1.68z" fill="#07C160"/>
</svg>